<svg width="24" height="24" viewBox="0 0 24 24" fill="none" xmlns="http://www.w3.org/2000/svg">
<path fill-rule="evenodd" clip-rule="evenodd" d="M6.46153 0C6.97133 0 7.38461 0.41328 7.38461 0.923076V1.84615H16.6154V0.923076C16.6154 0.41328 17.0287 0 17.5385 0C18.0482 0 18.4615 0.41328 18.4615 0.923076V1.84615H21.2308C22.7601 1.84615 24 3.08597 24 4.61538V21.2308C24 22.7601 22.7601 24 21.2308 24H2.76923C1.23982 24 0 22.7601 0 21.2308V4.61538C0 3.08597 1.23982 1.84615 2.76923 1.84615H5.53846V0.923076C5.53846 0.41328 5.95174 0 6.46153 0ZM16.6154 3.69231V4.61538C16.6154 5.12518 17.0287 5.53846 17.5385 5.53846C18.0482 5.53846 18.4615 5.12518 18.4615 4.61538V3.69231H21.2308C21.7405 3.69231 22.1538 4.10559 22.1538 4.61538V7.38461H1.84615V4.61538C1.84615 4.10559 2.25943 3.69231 2.76923 3.69231H5.53846V4.61538C5.53846 5.12518 5.95174 5.53846 6.46153 5.53846C6.97133 5.53846 7.38461 5.12518 7.38461 4.61538V3.69231H16.6154ZM1.84615 9.23076V21.2308C1.84615 21.7405 2.25943 22.1538 2.76923 22.1538H21.2308C21.7405 22.1538 22.1538 21.7405 22.1538 21.2308V9.23076H1.84615ZM11.0769 12C11.0769 11.4902 11.4902 11.0769 12 11.0769C12.5098 11.0769 12.9231 11.4902 12.9231 12C12.9231 12.5098 12.5098 12.9231 12 12.9231C11.4902 12.9231 11.0769 12.5098 11.0769 12ZM15.6923 11.0769C15.1825 11.0769 14.7692 11.4902 14.7692 12C14.7692 12.5098 15.1825 12.9231 15.6923 12.9231C16.2021 12.9231 16.6154 12.5098 16.6154 12C16.6154 11.4902 16.2021 11.0769 15.6923 11.0769ZM18.4615 12C18.4615 11.4902 18.8749 11.0769 19.3846 11.0769C19.8943 11.0769 20.3077 11.4902 20.3077 12C20.3077 12.5098 19.8943 12.9231 19.3846 12.9231C18.8749 12.9231 18.4615 12.5098 18.4615 12ZM19.3846 14.7692C18.8749 14.7692 18.4615 15.1825 18.4615 15.6923C18.4615 16.2021 18.8749 16.6154 19.3846 16.6154C19.8943 16.6154 20.3077 16.2021 20.3077 15.6923C20.3077 15.1825 19.8943 14.7692 19.3846 14.7692ZM14.7692 15.6923C14.7692 15.1825 15.1825 14.7692 15.6923 14.7692C16.2021 14.7692 16.6154 15.1825 16.6154 15.6923C16.6154 16.2021 16.2021 16.6154 15.6923 16.6154C15.1825 16.6154 14.7692 16.2021 14.7692 15.6923ZM12 14.7692C11.4902 14.7692 11.0769 15.1825 11.0769 15.6923C11.0769 16.2021 11.4902 16.6154 12 16.6154C12.5098 16.6154 12.9231 16.2021 12.9231 15.6923C12.9231 15.1825 12.5098 14.7692 12 14.7692ZM7.38461 15.6923C7.38461 15.1825 7.79789 14.7692 8.30769 14.7692C8.81748 14.7692 9.23076 15.1825 9.23076 15.6923C9.23076 16.2021 8.81748 16.6154 8.30769 16.6154C7.79789 16.6154 7.38461 16.2021 7.38461 15.6923ZM4.61538 14.7692C4.10559 14.7692 3.69231 15.1825 3.69231 15.6923C3.69231 16.2021 4.10559 16.6154 4.61538 16.6154C5.12518 16.6154 5.53846 16.2021 5.53846 15.6923C5.53846 15.1825 5.12518 14.7692 4.61538 14.7692ZM3.69231 19.3846C3.69231 18.8749 4.10559 18.4615 4.61538 18.4615C5.12518 18.4615 5.53846 18.8749 5.53846 19.3846C5.53846 19.8943 5.12518 20.3077 4.61538 20.3077C4.10559 20.3077 3.69231 19.8943 3.69231 19.3846ZM8.30769 18.4615C7.79789 18.4615 7.38461 18.8749 7.38461 19.3846C7.38461 19.8943 7.79789 20.3077 8.30769 20.3077C8.81748 20.3077 9.23076 19.8943 9.23076 19.3846C9.23076 18.8749 8.81748 18.4615 8.30769 18.4615ZM11.0769 19.3846C11.0769 18.8749 11.4902 18.4615 12 18.4615C12.5098 18.4615 12.9231 18.8749 12.9231 19.3846C12.9231 19.8943 12.5098 20.3077 12 20.3077C11.4902 20.3077 11.0769 19.8943 11.0769 19.3846ZM15.6923 18.4615C15.1825 18.4615 14.7692 18.8749 14.7692 19.3846C14.7692 19.8943 15.1825 20.3077 15.6923 20.3077C16.2021 20.3077 16.6154 19.8943 16.6154 19.3846C16.6154 18.8749 16.2021 18.4615 15.6923 18.4615Z" fill="#454545"/>
</svg>
