<svg width="24" height="24" viewBox="0 0 24 24" fill="none" xmlns="http://www.w3.org/2000/svg">
<path fill-rule="evenodd" clip-rule="evenodd" d="M12 1.63636C6.27634 1.63636 1.63636 6.27633 1.63636 12C1.63636 17.7236 6.27634 22.3636 12 22.3636C17.7237 22.3636 22.3638 17.7236 22.3638 12C22.3638 6.27633 17.7237 1.63636 12 1.63636ZM0 12C0 5.37258 5.37259 0 12 0C18.6274 0 24.0001 5.37258 24.0001 12C24.0001 18.6274 18.6274 24 12 24C5.37259 24 0 18.6274 0 12Z" fill="#454545"/>
<path fill-rule="evenodd" clip-rule="evenodd" d="M22.909 12.7273H1.09082V11.2727H22.909V12.7273Z" fill="#454545"/>
<path fill-rule="evenodd" clip-rule="evenodd" d="M11.2725 22.9088V1.09055H12.7271V22.9088H11.2725ZM17.2272 11.9996C17.2272 8.04918 15.8066 4.14107 13.0215 1.55703L13.8871 0.624023C16.9811 3.49452 18.5 7.76825 18.5 11.9996C18.5 16.231 16.9811 20.5048 13.8871 23.3753L13.0215 22.4422C15.8066 19.8582 17.2272 15.9501 17.2272 11.9996ZM5.63574 11.9997C5.63574 7.7744 7.10515 3.50288 10.1048 0.630896L10.985 1.55021C8.28758 4.13279 6.90847 8.04309 6.90847 11.9997C6.90849 15.9562 8.28762 19.8666 10.985 22.4491L10.1048 23.3684C7.10518 20.4964 5.63576 16.2249 5.63574 11.9997Z" fill="#454545"/>
<path fill-rule="evenodd" clip-rule="evenodd" d="M12.0002 5.55957C15.9444 5.55957 19.9553 6.28892 22.6741 7.8077C22.981 7.9791 23.0908 8.36678 22.9193 8.67361C22.7481 8.98043 22.3602 9.09023 22.0535 8.91883C19.5991 7.54783 15.8329 6.8323 12.0002 6.8323C8.16734 6.8323 4.40115 7.54783 1.94682 8.91883C1.63998 9.09023 1.25231 8.98043 1.08091 8.67361C0.909527 8.36678 1.01931 7.9791 1.32615 7.8077C4.04504 6.28892 8.05591 5.55957 12.0002 5.55957ZM12.0002 18.0905C15.9444 18.0905 19.9553 17.361 22.6741 15.8423C22.981 15.6709 23.0908 15.2832 22.9193 14.9764C22.7481 14.6696 22.3602 14.5598 22.0535 14.7312C19.5991 16.1022 15.8329 16.8178 12.0002 16.8178C8.16734 16.8178 4.40115 16.1022 1.94682 14.7312C1.63998 14.5598 1.25231 14.6696 1.08091 14.9764C0.909527 15.2832 1.01931 15.6709 1.32615 15.8423C4.04504 17.361 8.05591 18.0905 12.0002 18.0905Z" fill="#454545"/>
</svg>
