<svg width="24" height="24" viewBox="0 0 24 24" fill="none" xmlns="http://www.w3.org/2000/svg">
<path fill-rule="evenodd" clip-rule="evenodd" d="M6.54545 6.74144C6.54545 5.12746 7.07387 3.92041 7.94887 3.12451C8.81311 2.3384 10.1363 1.84307 12.0031 1.84307C13.8708 1.84307 15.1921 2.33742 16.0543 3.12176C16.9274 3.91597 17.4545 5.1215 17.4545 6.73635V9.25536H6.54545V6.74144ZM4.36364 9.25536V6.74144C4.36364 4.79786 5.00376 3.09497 6.35016 1.8703C7.70732 0.63584 9.65836 0 12.0031 0C14.3473 0 16.2971 0.63407 17.6531 1.86762C18.9984 3.09134 19.6364 4.79321 19.6364 6.73635V9.25536H21.8182C23.0232 9.25536 24 10.0805 24 11.0984V22.1569C24 23.1749 23.0232 24 21.8182 24H2.18182C0.976844 24 0 23.1749 0 22.1569V11.0984C0 10.0805 0.976844 9.25536 2.18182 9.25536H4.36364ZM2.18182 11.0984H21.8182V22.1569H2.18182V11.0984Z" fill="#454545"/>
</svg>
